<?xml version="1.0" standalone="no"?>
<!DOCTYPE svg PUBLIC "-//W3C//DTD SVG 20010904//EN"
 "http://www.w3.org/TR/2001/REC-SVG-20010904/DTD/svg10.dtd">
<svg version="1.0" xmlns="http://www.w3.org/2000/svg"
 width="231.000000pt" height="231.000000pt" viewBox="0 0 231.000000 231.000000"
 preserveAspectRatio="xMidYMid meet">
<metadata>
Created by potrace 1.11, written by Peter Selinger 2001-2013
</metadata>
<g transform="translate(0.000000,231.000000) scale(0.100000,-0.100000)"
fill="#000000" stroke="none">
<path d="M2010 2235 c-31 -33 -32 -87 -2 -117 32 -33 97 -31 123 2 64 84 -50
191 -121 115z"/>
<path d="M1641 2219 c-34 -14 -50 -39 -51 -77 0 -81 112 -113 152 -44 41 71
-26 152 -101 121z"/>
<path d="M1123 2055 c-34 -14 -43 -31 -43 -79 0 -43 35 -76 81 -76 43 1 67 19
79 60 15 53 -15 95 -76 106 -6 1 -24 -4 -41 -11z"/>
<path d="M707 2011 c-29 -30 -31 -86 -3 -117 49 -57 146 -19 146 57 0 66 -97
106 -143 60z"/>
<path d="M1754 1922 c-34 -10 -77 -26 -95 -35 -83 -39 -235 -169 -223 -189 4
-7 20 -30 35 -50 25 -36 27 -36 45 -20 72 67 192 127 291 146 173 32 295 -21
358 -157 28 -60 31 -103 10 -153 l-15 -35 -30 35 c-64 73 -179 63 -230 -19
-45 -72 -19 -163 58 -201 137 -70 336 93 344 282 7 160 -85 304 -241 377 -83
39 -212 47 -307 19z"/>
<path d="M875 1734 c-79 -16 -140 -44 -212 -98 -121 -88 -262 -249 -346 -393
-54 -93 -143 -290 -134 -299 1 -2 39 45 82 104 139 186 269 327 388 419 189
147 446 163 559 34 61 -70 83 -156 57 -230 -13 -38 -16 -38 -41 -6 -75 96
-232 57 -254 -62 -15 -81 38 -156 120 -168 120 -18 252 91 290 239 22 84 14
156 -29 243 -85 173 -278 260 -480 217z"/>
<path d="M2078 1030 c-2 -7 7 -60 19 -119 75 -344 -36 -599 -295 -675 -76 -22
-193 -16 -260 14 -155 68 -267 209 -332 415 -29 95 -41 125 -49 125 -13 0 -10
-42 9 -129 49 -232 166 -419 324 -522 148 -97 297 -110 438 -38 68 34 145 120
183 201 89 194 94 394 16 628 -33 97 -46 121 -53 100z"/>
<path d="M1595 868 c-75 -65 4 -180 93 -134 71 37 52 139 -29 152 -28 5 -41 1
-64 -18z"/>
</g>
</svg>
