<svg xmlns="http://www.w3.org/2000/svg" viewBox="0 0 357.8 110.23"><title>sketches_OJhnRy.tifldpi</title><g id="a5a7213a-f8c3-4aac-bdba-9e49a91ca497" data-name="Layer 2"><g id="a8fe5a57-8776-4123-9d2b-1ade16d0002a" data-name="Layer 1"><g id="b2c87fe3-74e4-4f11-97b2-2360de2c467b" data-name="OJhnRy.tif"><path d="M357.8,64.59c-.71,2-1.45,4-2.14,6s-1.33,4.06-2,6.15h-1c.38-3.21.74-6.35,1.12-9.49.13-1,.3-2,.49-3,.32-1.72,2.11-2.26,3.58-1.08Z"/><path d="M53.53,51.59c4.5-6.51-1.18-15-6.38-17C43,33,38.88,33.18,34.66,34c-6.29,1.28-11.13,5-15.67,9.25A137.12,137.12,0,0,0,.89,64.77c-.25.36-.5.71-.88,1.22a2.42,2.42,0,0,1,0-.58c4.69-12.9,11.75-24.22,22.48-33,4.13-3.4,8.74-5.87,14.17-6.48,13-1.48,21.93,6.71,23.84,16.3,1.6,8.08-3.94,17.08-11.62,18.91a7.32,7.32,0,0,1-8.66-3.84A7.19,7.19,0,0,1,53,50.68Z"/><path d="M98.9,41.91a9.39,9.39,0,0,0,1.2-8.31c-2.46-7.34-8.32-10.39-15.87-9.88a28.5,28.5,0,0,0-17,7.38c-.39.34-.8.67-1.2,1-.06,0-.14.06-.22.11L62.5,27.56c5.35-5.27,11-9.92,18.67-11.24,11-1.88,21.55,4.46,24.39,14.76,2.31,8.39-2.79,18-10.78,20.21-5,1.42-9.61-1.55-9.89-6.41a7.21,7.21,0,0,1,13.34-4.16C98.44,41.06,98.62,41.41,98.9,41.91Z"/><path d="M49.13,73.4c.4.93.84,1.85,1.18,2.8,1.23,3.45,2.23,7,3.67,10.34A27.12,27.12,0,0,0,62,97c12,9.68,28.56,4.89,33.65-9.74,2.31-6.65,1.91-13.33.16-20-.41-1.58-.69-3.19-1-4.79a7.47,7.47,0,0,1,0-1.34l.31-.06a7.19,7.19,0,0,1,.7,1.06C100.32,72.73,102,83.6,98,94.79c-1.92,5.41-5.09,10-10.19,12.86-5.93,3.38-12.06,3.3-18.18.57-6.4-2.85-11-7.71-14.56-13.6A50.77,50.77,0,0,1,48.7,75.71a14.67,14.67,0,0,1,0-2.2Z"/><path d="M135.63,74.87c.14-5.23,3.48-10.44,8.63-12,3-.94,5.9-.57,8.2,1.65a8.25,8.25,0,0,1,2.16,7.2,12.44,12.44,0,0,1-3.84,8.09c-2.94,2.66-6.32,4.15-10.33,2.72A6.93,6.93,0,0,1,136,77.31,24.27,24.27,0,0,1,135.63,74.87Zm3.35,1.2a26,26,0,0,0,.59,2.8,4,4,0,0,0,2.54,2.74c2.46.86,5-.66,6.3-2.38a16.35,16.35,0,0,0,2.87-10.67c-.09-2.4-1.5-4.41-3.41-4.84a5.27,5.27,0,0,0-5.07,1.6C140,68.16,139.27,71.83,139,76.07Z"/><path d="M227.77,70.56a4,4,0,0,1,3.84-1.89c1.17.13,1.68.89,1.77,2.08,1-.61,1.9-1.26,2.89-1.75a5.66,5.66,0,0,1,2.13-.56c1.86-.09,2.57.44,3.35,2.38a14.17,14.17,0,0,1,1.86-1.26,9.74,9.74,0,0,1,2.91-1.1c2.83-.35,3.78,1.77,3.21,4.07-.52,2.12-1.06,4.24-1.54,6.37-.4,1.84.2,2.46,2.06,2.2a8.55,8.55,0,0,0,.9-.23c-.61,1.65-2,1.67-3.21,1.88-2,.35-3.06-1-2.55-3s1.12-4.3,1.64-6.45a6.9,6.9,0,0,0,.19-1.75,1.42,1.42,0,0,0-1.4-1.47,4.28,4.28,0,0,0-4.38,3c-.73,2.91-1.4,5.83-2.15,8.74a1.1,1.1,0,0,1-.74.67,10.45,10.45,0,0,1-1.88,0c.77-3.24,1.49-6.39,2.27-9.51.24-1,.32-2-.54-2.46a3.17,3.17,0,0,0-2.27-.25,4.1,4.1,0,0,0-3.35,3.59c-.38,2.49-1.18,4.92-1.69,7.4-.21,1.05-.7,1.38-1.68,1.24a8.4,8.4,0,0,0-1.13,0c.81-3.42,1.61-6.71,2.37-10,.43-1.84-.33-2.54-2.19-2A4.88,4.88,0,0,1,227.77,70.56Z"/><path d="M235.36,51.52c-1.69-.11-3.39-.28-5.09-.32-1,0-2,.17-3,.2-.28,0-.58-.24-1.11-.47a3.84,3.84,0,0,1-5.18-.47,4.64,4.64,0,0,1-.75-5.05c1.2-2.09,2.82-2.61,6.33-2a9.52,9.52,0,0,0-.06-2.62,7.57,7.57,0,0,0-1.41-2l4.11-.38c0,3.68,0,7.18,0,10.68,0,.72.15,1.19,1,1.37,1.54.35,1.67.27,1.68-1.35,0-1.08,0-2.16,0-3.23A1.63,1.63,0,0,0,230.74,44c-.15,0-.22-.31-.41-.61l4.15-.37.06,1a20.19,20.19,0,0,1,3.57-.94,2.46,2.46,0,0,1,2.65,2.65c0,1,0,2.07,0,3.11,0,.81-.1,1.62,1,1.89.12,0,.17.36.29.63h-4.74a1.34,1.34,0,0,1-.09-.23c1.39-.9.86-2.29.94-3.53,0-.52,0-1,0-1.56a1.33,1.33,0,0,0-1.24-1.56c-.94-.13-2.28.53-2.32,1.23a29.38,29.38,0,0,0,0,4.3c0,.41.62.76,1,1.14Zm-8.75-4.25a6.8,6.8,0,0,0-.05-2,2.23,2.23,0,0,0-1.13-1.4,2,2,0,0,0-1.67.67,4.58,4.58,0,0,0-.42,4.59,1.87,1.87,0,0,0,2.28,1.08c.86-.2,1.1-.88,1-1.72A9.59,9.59,0,0,1,226.61,47.27Z"/><path d="M183.6,69.32c.36-1.59.66-3.08,1.05-4.55.48-1.85-.07-1.95-1.48-2.31a4.44,4.44,0,0,0-1,0l.17-.91,5.56-.36c-.34,1.56-.61,3-.93,4.34-1.07,4.55-2.17,9.09-3.23,13.64-.39,1.67.62,2.32,2.71,1.78-.18,1.13-1.35,1.82-3.11,1.85-1.48,0-2.05-.47-2.31-1.89a26.19,26.19,0,0,1-3.41,1.88,3.89,3.89,0,0,1-5.15-3,9.25,9.25,0,0,1,3.32-9.7A6.64,6.64,0,0,1,183.6,69.32ZM175,77.48c0,.4,0,.8,0,1.2a2.9,2.9,0,0,0,2.1,2.68c1.36.24,4-1.28,4.37-2.91.42-2.06.95-4.1,1.41-6.15a2.34,2.34,0,0,0-1.27-2.63c-1.64-.91-3.69.21-4.65,1.54A10.45,10.45,0,0,0,175,77.48Z"/><path d="M156.14,70.48c.36-1,1.88-1.82,3.44-1.82a1.82,1.82,0,0,1,2,1.57c1.26-.59,2.49-1.56,3.83-1.73,2.72-.37,4.47,1.28,4.76,4.3a9.3,9.3,0,0,1-4.36,9.2,5.93,5.93,0,0,1-6.74,0c-.36,1.48-.81,2.91-1,4.38-.2,1.24,1.09,1,1.7,1.38a9.19,9.19,0,0,1,.75.65l-.21.27H152.9l.12-.8c2.23-.34,2.34-.54,2.86-2.88.84-3.85,1.78-7.67,2.68-11.51a6.93,6.93,0,0,0,.37-1.82c-.05-.7-.15-1.57-1.29-1.39C157.15,70.41,156.65,70.43,156.14,70.48ZM167.37,74a8,8,0,0,0,0-1.2c-.3-1.8-.77-2.72-2.22-2.9a3.82,3.82,0,0,0-3.78,2.56c-.46,1.85-1,3.68-1.38,5.55a4.39,4.39,0,0,0,0,2.71c1,1.76,3.1,1.81,4.64.42C166.76,79.18,167.2,76.64,167.37,74Z"/><path d="M218.92,68.81c-.56,2.5-1.11,5-1.69,7.56-.45,1.93-.86,3.88-1.44,5.78-.84,2.78-2.19,5.34-5.22,6.16a15.34,15.34,0,0,1-5,.16c-.51,0-1.13-.7-1.39-1.23a1.6,1.6,0,0,1,.38-1.42,1.46,1.46,0,0,1,1.35-.25,2.7,2.7,0,0,1,1.29,1.27c.5,1.09,1.15,1.1,2.16.77,2.21-.73,3-2.58,3.78-4.48a16.33,16.33,0,0,0,.53-2.18,20.06,20.06,0,0,1-4.29,1.77c-2.33.4-4.07-.89-4.57-4.08-.64-4,2.14-8.75,5.88-9.83A7.81,7.81,0,0,1,216,69C216.77,69.36,217.87,68.92,218.92,68.81Zm-11.26,8.57c0,.32,0,.64,0,1,.11,1.74,1,2.9,2.22,3,1.64.14,3.93-1.26,4.26-2.62.55-2.22,1.12-4.44,1.63-6.67a2,2,0,0,0-1.11-2.38,3.36,3.36,0,0,0-3.36.23C208.58,71.67,207.93,74.43,207.66,77.38Z"/><path d="M207.6,18.44l4.08-.37v8.46l.27.2,3-2.74-1.28-1.22h4.84c-1.32.8-2.35,1.46-3.41,2.06-.73.41-.65.79-.18,1.37.83,1,1.55,2.16,2.39,3.19a9.74,9.74,0,0,0,1.58,1.26L219,28l.25-.1c.22.33.45.65.65,1a3.24,3.24,0,0,0,3.27,1.66c.4-.11,1-.6,1-.91a1.82,1.82,0,0,0-.82-1.18,4.81,4.81,0,0,0-1.54-.5c-1.55-.38-2.68-1.58-2.61-2.79A3,3,0,0,1,222,22.7a16.69,16.69,0,0,1,2.1.18c.54,0,1.08,0,1.73,0l.32,2.57-.27.14L225,24.51a2.33,2.33,0,0,0-2.65-1,1.21,1.21,0,0,0-.73.77,1.16,1.16,0,0,0,.53.94,22.68,22.68,0,0,0,2.31.84c1.54.55,2.23,1.42,2.15,2.71s-1.44,2.4-3.14,2.52a5.89,5.89,0,0,1-2.09-.22c-1.72-.51-3.41.17-5.13.05a1.88,1.88,0,0,1-1.61-.89c-.55-.81-1.09-1.62-1.68-2.4a2.91,2.91,0,0,0-.76-.57c-.16.28-.43.56-.44.85,0,.91-.31,2,1,2.3.09,0,.1.33.17.58h-5.07c.05-.23.06-.5.11-.51,1.35-.16,1.1-1.17,1.1-2,0-2.47,0-4.94,0-7.42,0-.92,0-1.75-1.2-2C207.79,19,207.73,18.7,207.6,18.44Z"/><path d="M311.46,74.05c.72,1.77,1.29,3.53,2.13,5.14,1,2,1.38,2.51,4.46,1.94-.2.38-.28.73-.5.91a3.88,3.88,0,0,1-5.85-1.34c-.72-1.55-1.31-3.16-2-4.75A3.23,3.23,0,0,0,307.63,79a8.44,8.44,0,0,1-.43,1.58c-.49,2.14-.48,2.14-2.84,1.85q2-8.82,4.06-17.64c.38-1.66.08-2.15-1.56-2.38l-.58-.07c.21-.91,3.36-1.44,5.39-.91q-1.65,7-3.29,14l.2.13a11.2,11.2,0,0,1,1.07-1.3c2-1.81,3.87-3.64,5.92-5.31.42-.34,1.42-.15,2.07.06.3.09.55.82.56,1.27a1.48,1.48,0,0,1-2,1.42c-1.7-.82-2.49.47-3.55,1.18A11.37,11.37,0,0,0,311.46,74.05Z"/><path d="M302.9,81.14a2.73,2.73,0,0,1-.32.79c-1.44,1.51-4.93,1-5.82-.86-.8-1.67-1.44-3.42-2.14-5.12a3.26,3.26,0,0,0-2.09,3,7.69,7.69,0,0,1-.44,1.57c-.5,2.14-.49,2.14-2.85,1.93.82-3.56,1.63-7.11,2.47-10.66.58-2.46,1.21-4.91,1.77-7.38a1.35,1.35,0,0,0-1.11-1.85l-1.27-.27c.1-.25.17-.67.28-.68,1.69-.18,3.39-.32,5.23-.47-.6,2.66-1.12,5-1.67,7.33s-1.12,4.61-1.5,7.05c.35-.37.67-.76,1-1.11,2-1.83,3.88-3.71,5.91-5.46a1.71,1.71,0,0,1,2.46.29,1.3,1.3,0,0,1-.24,2,2.49,2.49,0,0,1-1.89.34,1.62,1.62,0,0,0-1.6.18c-.44.31-.92.59-1.34.93-1.44,1.13-1.46,1.21-.72,3a34.29,34.29,0,0,0,1.83,4.16c.93,1.63,1.59,1.79,3.44,1.3A3.53,3.53,0,0,1,302.9,81.14Z"/><path d="M202.42,68.64c-.62,2.71-1.2,5.28-1.8,7.85-.19.83-.44,1.65-.61,2.49-.34,1.68.26,2.32,2,2.12a6.54,6.54,0,0,0,.79-.2c-.22,1-1.71,1.87-3.18,1.89s-2-.47-2.35-2c-.47.35-1,.69-1.41,1.06a4.3,4.3,0,0,1-4.8.8,4.36,4.36,0,0,1-2.51-4.06,9.42,9.42,0,0,1,4.29-9,5.82,5.82,0,0,1,5.72-.75,3.71,3.71,0,0,0,3.11,0A4.92,4.92,0,0,1,202.42,68.64Zm-11.07,8.92v.36c0,2,.86,3.29,2.18,3.43a4.15,4.15,0,0,0,4.1-2.77c.33-1.24.63-2.48.92-3.73a16.07,16.07,0,0,0,.67-3.31c0-2-2.28-2.88-4.15-1.67C192.28,71.67,191.58,74.51,191.35,77.56Z"/><path d="M348,80.86c-.58,1.7-2.07,1.65-3.21,1.88-2,.38-3.05-1-2.55-3,.56-2.18,1.16-4.36,1.72-6.54.28-1,.36-2.21-.67-2.77a3.24,3.24,0,0,0-2.41,0c-1.58.63-2.87,1.5-3.12,3.56-.28,2.42-1.08,4.78-1.59,7.18-.23,1-.65,1.64-1.82,1.39a4.89,4.89,0,0,0-1,0c.75-3.31,1.47-6.52,2.2-9.74a3.92,3.92,0,0,0,.16-.56c.18-1.58-.25-2-1.83-1.91a7.21,7.21,0,0,0-.9.19c.16-1,1.48-1.77,3.12-1.87,1.38-.08,1.92.38,2.39,2a31.19,31.19,0,0,1,4.12-2c2.87-.9,4.73,1,4,3.93-.54,2.11-1.06,4.23-1.53,6.36-.41,1.85.07,2.37,1.94,2.18A7.52,7.52,0,0,0,348,80.86Z"/><path d="M267.15,81a3.94,3.94,0,0,1-3.68,1.83c-1.27-.1-1.61-1.06-1.94-2.1a13.43,13.43,0,0,1-2,1.4,8.93,8.93,0,0,1-2.85.9c-2.63.25-3.53-1.59-3.16-3.79s.92-4.19,1.43-6.27c.58-2.41-.08-3.05-2.52-2.42l-.21-.25a7.73,7.73,0,0,1,1.11-.89,8.31,8.31,0,0,1,1.74-.66c1.94-.47,3.19,1,2.7,3.1s-1,4.32-1.56,6.48c-.24,1-.25,2.16.6,2.71a3.3,3.3,0,0,0,2.44,0,3.83,3.83,0,0,0,3-3.23c.39-2.46,1-4.88,1.56-7.32.33-1.57.42-2,2.88-1.7l-2,9.13a8.66,8.66,0,0,0-.35,1.71c0,.77.24,1.5,1.25,1.47C266.06,81.09,266.55,81,267.15,81Z"/><path d="M182.63,31H178c0-.13-.07-.26-.05-.28,1.5-.91.79-2.39.93-3.65,0-.39,0-.79,0-1.19.07-.95-.23-1.67-1.28-1.76a1.67,1.67,0,0,0-1.84,1.79c0,.36,0,.72,0,1.08.07,1.34-.49,2.83.91,4h-4.74c0-.19.06-.52.11-.53,1.22-.12,1.1-1,1.08-1.82,0-1,0-2,0-3s-.12-1.72-1.19-2c-.13,0-.19-.34-.32-.61l4.09-.38.08,1.14a20.66,20.66,0,0,1,3-1,2.24,2.24,0,0,1,2.46,1.17,18.28,18.28,0,0,1,3.55-1.15,2.28,2.28,0,0,1,2.49,2.47c0,.88,0,1.75,0,2.63s-.38,2.21,1.1,2.61c0,0,.07.14.07.22a1.13,1.13,0,0,1,0,.32h-4.67c0-.12-.06-.25,0-.26,1.46-.83.82-2.23.93-3.41.05-.56,0-1.12,0-1.68,0-.9-.41-1.49-1.3-1.48s-1.71.3-1.79,1.31a21.6,21.6,0,0,0,0,3.94C181.62,29.9,182.18,30.36,182.63,31Z"/><path d="M136.14,30.65a2.54,2.54,0,0,0,.75-.32c.36-.33.92-.72.93-1.1.08-2.67.07-5.34,0-8,0-.32-.43-.68-.73-.94a5.84,5.84,0,0,0-1-.59l.16-.47c2.84.12,5.71,0,8.52.41s4.43,3,4.36,6a5.37,5.37,0,0,1-4.68,5.11c-2.71.24-5.46,0-8.19,0Zm4.61-10.5c0,3,0,6,0,8.89a1.2,1.2,0,0,0,1.09,1.3,2.9,2.9,0,0,0,3.44-2.15,12.19,12.19,0,0,0,.45-4.05C145.41,21.47,144.1,19.61,140.75,20.15Z"/><path d="M322.39,77.1c-.13,2.49.88,4,2.05,4.38,1.68.56,3.76-.4,5.59-2.94.19.54.5,1,.39,1.18-1.69,2.3-5.1,4.28-8.24,2.87a4.54,4.54,0,0,1-2.74-4.18A10.52,10.52,0,0,1,322,70.8a7.73,7.73,0,0,1,7.77-2c1.79.73,2.27,3.55.88,5.15s-3.43,2.1-5.38,2.64C324.3,76.8,323.33,76.92,322.39,77.1Zm0-1c1.24-.28,2.39-.46,3.48-.8A4.39,4.39,0,0,0,329,71.13c0-1.35-.69-2-2-1.72a4.69,4.69,0,0,0-2,1A9.37,9.37,0,0,0,322.39,76.14Z"/><path d="M168.56,43.42c-.15-1.65.83-3.57-1.86-4.4l.47-.22,4-.39V39.9c0,3,0,5.9,0,8.86,0,.9,0,1.71,1.22,1.75.09,0,.17.28.41.7-1.59-.35-3,.82-4.6-.32a3.85,3.85,0,0,1-5.24-.44,4.53,4.53,0,0,1-.74-5C163.75,43,166,42.63,168.56,43.42Zm0,3.77a6.39,6.39,0,0,0,0-1.91c-.18-.55-.63-1.28-1.1-1.41a2,2,0,0,0-1.69.62,4.64,4.64,0,0,0-.45,4.59,1.87,1.87,0,0,0,2.27,1.11c.95-.2,1.14-.93,1-1.81A9.43,9.43,0,0,1,168.57,47.19Z"/><path d="M275.77,68.1A19,19,0,0,1,279,69.45a1.37,1.37,0,0,1,0,2.3,1.58,1.58,0,0,1-2.18-.48,1.49,1.49,0,0,1-.31-.63c-.13-1-.7-1.38-1.72-1.28a2.88,2.88,0,0,0-2.35,1.87c-.13.84-.25,1.76.77,2.26,1.19.58,2.36,1.18,3.54,1.78,3.06,1.56,2.06,5.43-.32,6.79a7.09,7.09,0,0,1-7.29,0c-.81-.43-1.27-1.09-1-1.9a2.21,2.21,0,0,1,1.35-1.2c.91-.27,1.32.55,1.62,1.23.87,2,2.19,2.45,4,1.32a2.55,2.55,0,0,0,1.13-2.44A1.91,1.91,0,0,0,275,77.33c-1-.45-2-.84-3-1.36-2.63-1.43-2.47-4.19-.64-6a5.53,5.53,0,0,1,4.31-1.53Z"/><path d="M196.3,51.37h-4.93a2.71,2.71,0,0,1,.1-.57c1.34-.12,1.08-1.1,1.08-1.94,0-2.51,0-5,0-7.54,0-.94-.07-1.74-1.23-1.92-.11,0-.17-.3-.32-.59l4.14-.39v5.65a17.23,17.23,0,0,1,3.25-1,2.45,2.45,0,0,1,2.78,2.63c0,1.07,0,2.15,0,3.23,0,.8,0,1.49,1,1.78.14,0,.2.34.35.62h-4.82c0-.15-.07-.27,0-.3,1.89-1.64.6-3.79.82-5.69,0-.22-1.1-.91-1.55-.8a2.44,2.44,0,0,0-1.61,1.37,15.15,15.15,0,0,0-.05,3.81c0,.32.39.63.6.94Z"/><path d="M269.67,43.37c0,.74,0,.74-1.5,1,.74,2.31-.31,3.79-2.83,4-.52,0-1-.06-1.56,0a3.68,3.68,0,0,0-.94.49c.31.23.6.61.93.66.71.1,1.44,0,2.16,0a8,8,0,0,1,2.08.32,2.28,2.28,0,0,1,1.78,2.07,2.48,2.48,0,0,1-1.9,2.56,9.09,9.09,0,0,1-7-.13,2,2,0,0,1-.86-1.56c0-.37.72-.79,1.18-1.08a2.2,2.2,0,0,1,.9-.12c-.44-.71-1.11-1.35-1.1-2s.81-1,1.31-1.61c-.09,0-.43-.22-.74-.41a2.08,2.08,0,0,1,.08-3.79,6.52,6.52,0,0,1,2.68-.71C266.11,43.05,267.89,43.26,269.67,43.37ZM265,51.66a4.53,4.53,0,0,0-1.43,0,2.12,2.12,0,0,0-1.12.91c-.11.25.18.82.45,1.1a3.44,3.44,0,0,0,4,0,1.54,1.54,0,0,0,.42-1.23c-.1-.34-.64-.62-1.05-.75A4.33,4.33,0,0,0,265,51.66Zm1-6c0-1.25-.56-1.94-1.59-1.85s-1.28,1-1.28,1.89c0,1.27.51,1.92,1.53,1.92C265.46,47.59,266,46.87,265.94,45.62Z"/><path d="M305.36,44.32l-1.13-1,.13-.24h4.49c-1.2.75-2.15,1.45-3.18,2s-.86.88-.25,1.57,1.15,1.69,1.82,2.44a22.69,22.69,0,0,0,1.89,1.62c.14.13.16.38.27.69-1.15,0-2.19,0-3.22,0a1.25,1.25,0,0,1-.8-.48c-.7-.94-1.34-1.93-2-2.87-.16-.21-.54-.45-.73-.39a.93.93,0,0,0-.43.71c0,.94-.37,2.06,1.05,2.4.08,0,.08.35.13.6h-5c.08-.25.13-.6.2-.61,1.11-.09,1-.86,1-1.64q0-3.88,0-7.78c0-.94-.07-1.75-1.23-1.93-.1,0-.17-.29-.33-.59l4.15-.39v8.91Z"/><path d="M136.07,39.68h5.62a6.08,6.08,0,0,1,.84.16,5.83,5.83,0,0,1-1,.55,1.21,1.21,0,0,0-1.06,1.42c.06,2,0,3.91,0,5.86a2.73,2.73,0,0,0,2.86,3,3,3,0,0,0,3.13-3.08c0-1.59,0-3.19,0-4.78,0-1.09-.13-2.06-1.52-2.25-.26,0-.47-.43-.92-.86h5.47l.15.24a2.64,2.64,0,0,1-.73.5,1.9,1.9,0,0,0-1.5,2.2c.05,1.47,0,2.95,0,4.42,0,2.44-.87,3.71-3.29,4.36-2,.54-4,.38-5.51-1.35a4.77,4.77,0,0,1-1-2.52,38.33,38.33,0,0,1,0-5.14c0-1-.21-1.78-1.31-2-.26-.06-.53-.08-.8-.12Z"/><path d="M94.29,8.3a4.17,4.17,0,0,1-4.11-4.14,4.17,4.17,0,0,1,8.33,0A4.15,4.15,0,0,1,94.29,8.3Z"/><path d="M44.82,13.89a4.17,4.17,0,0,1,8.33-.07A4.21,4.21,0,0,1,49,18,4.16,4.16,0,0,1,44.82,13.89Z"/><path d="M78.72,5.77A4.14,4.14,0,1,1,74.6,1.64,4.15,4.15,0,0,1,78.72,5.77Z"/><path d="M33.33,15.54a4.14,4.14,0,1,1-4-4.17A4,4,0,0,1,33.33,15.54Z"/><path d="M73.42,68.58a4.11,4.11,0,1,1-.14,8.21,4.1,4.1,0,0,1-4-4.18A4.06,4.06,0,0,1,73.42,68.58Z"/><path d="M149.85,51.34c.06-.24.1-.57.16-.58,1.27-.09,1.05-1,1.05-1.83,0-1,0-2.07,0-3.1A1.62,1.62,0,0,0,150,44c-.18-.06-.28-.33-.51-.62l4.19-.38.06,1a20.84,20.84,0,0,1,3.61-.93,2.46,2.46,0,0,1,2.61,2.57c0,.83,0,1.67,0,2.51,0,1.05-.35,2.27,1.14,2.72,0,0,0,.22,0,.44H156.4a1.26,1.26,0,0,1,0-.33c1.21-.42.92-1.44.93-2.33s0-1.75,0-2.63-.4-1.51-1.38-1.55c-1.16-.06-2.18.6-2.21,1.48a24,24,0,0,0,0,3.7c.07.55.61,1,1,1.68Z"/><path d="M259.76,51.36H255c0-.09-.1-.22-.08-.22,1.41-.94.83-2.38.93-3.65,0-.35,0-.71,0-1.07,0-1.41-.41-2-1.46-2a1.88,1.88,0,0,0-2.14,2.05c0,.24,0,.48,0,.72.1,1.38-.52,2.92.92,4.08h-4.74c0-.19.06-.53.11-.53,1.22-.12,1.1-1,1.08-1.82,0-1,0-2.08,0-3.11s-.21-1.62-1.19-1.9c-.14,0-.2-.34-.35-.61l4.12-.37.06,1.06a18.54,18.54,0,0,1,3.46-1c1.7-.14,2.74,1,2.76,2.78,0,1,0,2,0,3,0,.81-.09,1.62,1,1.89C259.59,50.76,259.64,51.09,259.76,51.36Z"/><path d="M171.29,31h-4.82c0-.15-.07-.27,0-.3,1.89-1.64.6-3.79.83-5.68,0-.23-1-.83-1.57-.84-.84,0-1.8.31-1.89,1.37a27.06,27.06,0,0,0,0,3.82c0,.33.38.63.59.95l.5.7h-5c.08-.25.13-.61.21-.61,1.1-.1,1-.87,1-1.64,0-1.08,0-2.16,0-3.23A1.62,1.62,0,0,0,160,23.61c-.14-.05-.22-.32-.41-.61l4.15-.38.06,1.05a19.86,19.86,0,0,1,3.56-.94A2.45,2.45,0,0,1,170,25.35c0,1.08,0,2.15,0,3.23,0,.8,0,1.5.95,1.78C171.07,30.4,171.14,30.7,171.29,31Z"/><path d="M208.51,51.66c-4,0-6.32-2.93-5.16-5.9A5,5,0,0,1,209,43.05c3.82.61,4.92,3.92,3.27,6.61A4.48,4.48,0,0,1,208.51,51.66Zm1.4-4.33a8.52,8.52,0,0,0-.39-2.3,2.26,2.26,0,0,0-1.46-1.19c-.47-.06-1.42.56-1.46,1a23.69,23.69,0,0,0,0,5c0,.43,1,1.09,1.51,1.07a2.19,2.19,0,0,0,1.44-1.21A8.52,8.52,0,0,0,209.91,47.33Z"/><path d="M284.37,51.66c-4.11,0-6.38-2.83-5.23-5.85.78-2.07,3.08-3.15,6.12-2.61A4.16,4.16,0,0,1,288,49.73,4.51,4.51,0,0,1,284.37,51.66Zm1.33-4.3a8.52,8.52,0,0,0-.39-2.31,2.39,2.39,0,0,0-1.45-1.22,1.76,1.76,0,0,0-1.42.87,7.31,7.31,0,0,0-.07,5.17,1.85,1.85,0,0,0,1.48,1,2.26,2.26,0,0,0,1.46-1.19A8.52,8.52,0,0,0,285.7,47.36Z"/><path d="M197.35,27.2c0,.52,0,1,0,1.55,0,.81,0,1.55,1.1,1.62.11,0,.22.24.33.36-.13.11-.25.27-.4.32a3.38,3.38,0,0,1-3.44-.44.92.92,0,0,0-.84,0,4.15,4.15,0,0,1-3.26.53,2,2,0,0,1-1.63-1.79,1.91,1.91,0,0,1,1.2-2.11,16.49,16.49,0,0,1,3.22-1c1.14-.24,1.24-1,1.07-1.85s-.94-1.11-1.73-1c-.2,0-.36.47-.48.75-.19.45-.21,1.22-.5,1.32a2.54,2.54,0,0,1-1.86,0c-.55-.3-.68-1-.1-1.61,1.26-1.33,5-1.71,6.39-.51a3.53,3.53,0,0,1,.9,1.81A8.58,8.58,0,0,1,197.35,27.2Zm-2.64-.91a10.19,10.19,0,0,0-2.14,1.36,1.79,1.79,0,0,0-.34,1.63c.22.37,1.06.53,1.61.5s1-.53.88-1.27S194.71,27.25,194.71,26.29Z"/><path d="M159.79,30.92c-1.49.37-2.85.85-4-.45-.09-.1-.55.05-.8.18-1,.55-2.13,1-3.23.43a3.53,3.53,0,0,1-1.56-1.66,1.73,1.73,0,0,1,1.08-2.14,15.92,15.92,0,0,1,3.33-1.05c1.09-.24,1.15-.94,1-1.76s-.85-1.15-1.67-1.07c-.5.05-.83.17-.55.83a1,1,0,0,1-.83,1.51c-.68.14-1.42.18-1.83-.63s.14-1.33.71-1.64a6.16,6.16,0,0,1,5.34-.44,2.11,2.11,0,0,1,1.49,2.18c0,1.2,0,2.4,0,3.59,0,.84.08,1.52,1.14,1.58C159.51,30.38,159.62,30.68,159.79,30.92Zm-4.17-4.44c-.61.22-1,.36-1.4.52-.9.37-1.59,1.46-1.18,2.12a1.9,1.9,0,0,0,1.41.7c1.11,0,1.26-.79,1.17-1.71C155.58,27.61,155.62,27.1,155.62,26.48Z"/><path d="M281.05,70.3c.67-1.62,4-2.55,5.05-1.42a2.74,2.74,0,0,1,.57,2.11c-.5,2.68-1.19,5.32-1.79,8-.46,2,.3,2.78,2.35,2.31a2.78,2.78,0,0,0,.4-.16l.23.31a9.11,9.11,0,0,1-1.17.9,5.44,5.44,0,0,1-1.63.6c-2.36.39-3.43-.68-3-2.85s1.12-4.53,1.69-6.8a6.91,6.91,0,0,0,.36-1.82c0-.72-.3-1.41-1.24-1.36C282.31,70.13,281.74,70.22,281.05,70.3Z"/><path d="M182,47.11h-5.64a2.38,2.38,0,0,0,.92,2.52,2.92,2.92,0,0,0,2.89.43c.3-.1.56-.28.86-.39s.77-.25,1.16-.37a4.61,4.61,0,0,1-.71,1.1,5.41,5.41,0,0,1-7.27-.22,4.24,4.24,0,0,1,1.92-6.85,9.22,9.22,0,0,1,3.7,0C181.17,43.52,182,45.14,182,47.11Zm-5.67-.79h2.52c.14-1.57-.27-2.53-1.08-2.56S176.26,44.79,176.28,46.32Z"/><path d="M318,47.09h-5.64a2.42,2.42,0,0,0,.9,2.54,3,3,0,0,0,2.89.43c.33-.11.63-.34.95-.46s.72-.21,1.08-.31a3.58,3.58,0,0,1-.53.94,5.38,5.38,0,0,1-7.44,0,4.27,4.27,0,0,1,1.89-6.87,4.93,4.93,0,0,1,4.72.56A3.37,3.37,0,0,1,318,47.09Zm-2.78-.75c-.41-1-.71-1.75-1.11-2.48-.06-.1-.71,0-.93.12a2.18,2.18,0,0,0-.82,2.36Z"/><path d="M343.06,47.11H337.5A2.72,2.72,0,0,0,341.37,50c.18-.08.35-.19.53-.26.46-.17.93-.32,1.4-.48a5.47,5.47,0,0,1-.94,1.33,5.43,5.43,0,0,1-7-.41,4.25,4.25,0,0,1,1.86-6.87,7.52,7.52,0,0,1,3.34,0C342.44,43.62,343.31,45,343.06,47.11Zm-5.6-.8H340c.08-1.62-.35-2.55-1.15-2.55S337.41,44.85,337.46,46.31Z"/><path d="M325.84,43.25c.09.58.2,1.31.3,2a6.14,6.14,0,0,1-.09.87c-.45-.57-.76-.93-1.05-1.3a2.32,2.32,0,0,0-2.3-1.06c-.4.07-1,.47-1,.73a1.58,1.58,0,0,0,.73,1.13,12.83,12.83,0,0,0,2.08.75c1.66.6,2.44,1.73,2.13,3.08a3.45,3.45,0,0,1-3.12,2.14,19,19,0,0,1-2.89-.35c-.47-.06-.94-.09-1.55-.15v-3c.38.5.64.78.84,1.11a3.13,3.13,0,0,0,3.21,1.72c.43-.11,1-.6,1-1s-.46-.88-.85-1.14a5.21,5.21,0,0,0-1.55-.49c-1.52-.39-2.65-1.62-2.56-2.82a3,3,0,0,1,2.87-2.43,16.53,16.53,0,0,1,2.09.18C324.69,43.27,325.23,43.25,325.84,43.25Z"/><path d="M270.31,51.11V48c.43.57.7.85.89,1.17a3.14,3.14,0,0,0,3.21,1.73c.43-.11,1-.6,1-1s-.46-.88-.85-1.14a5.21,5.21,0,0,0-1.55-.49c-1.52-.39-2.65-1.62-2.56-2.82a3,3,0,0,1,2.87-2.43,16.53,16.53,0,0,1,2.09.18c.54,0,1.09,0,1.69,0,.09.58.21,1.3.3,2a5.53,5.53,0,0,1-.08.86l-1.06-1.29a2.32,2.32,0,0,0-2.3-1.06c-.4.07-1,.47-1,.73a1.6,1.6,0,0,0,.73,1.13,12.83,12.83,0,0,0,2.08.75c1.62.58,2.35,1.61,2.14,3a3.3,3.3,0,0,1-3.12,2.26,18.07,18.07,0,0,1-2.9-.35Z"/><path d="M217.49,38.42c0,3.6,0,7,0,10.36,0,.86-.09,1.69,1,2,.1,0,.14.31.25.59h-5.1c.05-.21.08-.55.14-.55,1.24-.11,1.06-1,1.06-1.83,0-2.47,0-4.94,0-7.41,0-1-.1-1.71-1.11-2.08-.18-.07-.27-.36-.49-.66Z"/><path d="M199.32,31c.6-.76,1.42-1.24,1.19-2.44a9,9,0,0,1,0-3.1c.19-1.27-.84-1.64-1.67-2.2l.23-.26,4-.37.09,1.34A19,19,0,0,1,205,22.84a2,2,0,0,1,2.62.92,1.8,1.8,0,0,1-.93,2.17c-1.08.42-1.71-.13-2-1.76a1.65,1.65,0,0,0-1.56,2.12,12.3,12.3,0,0,1,0,1.92c0,1-.18,2.05,1.29,2.19.07,0,.1.33.18.59Z"/><path d="M349.57,44.51A1.68,1.68,0,0,0,348,46.66a12.18,12.18,0,0,1,0,1.91c0,1-.16,2,1.29,2.19.07,0,.1.34.17.59h-5.28c.06-.23.1-.59.16-.59,1.07-.1,1.06-.82,1-1.62,0-1,0-2.08,0-3.11s-.09-1.82-1.25-2.09c-.11,0-.15-.3-.28-.58l4.1-.38.08,1.1a12.64,12.64,0,0,1,3-1c.46,0,1.22.79,1.44,1.38a1.41,1.41,0,0,1-1,1.84C350.4,46.67,349.73,46,349.57,44.51Z"/><path d="M295.12,44.51a1.68,1.68,0,0,0-1.61,2.16,10.7,10.7,0,0,1,0,1.79c0,1-.26,2.16,1.31,2.3.06,0,.08.34.14.6H289.7c.07-.24.11-.6.18-.61,1.08-.09,1-.83,1-1.62,0-1,0-2.08,0-3.11s-.1-1.82-1.27-2.08c-.1,0-.14-.31-.25-.59l4.09-.37.07,1.09a13.88,13.88,0,0,1,3-1c.86-.08,1.47.65,1.49,1.63a1.49,1.49,0,0,1-1.34,1.65C295.76,46.54,295.29,46,295.12,44.51Z"/><path d="M186.5,43l.07,1.09a13.44,13.44,0,0,1,3.06-1c.86-.08,1.47.65,1.48,1.64a1.49,1.49,0,0,1-1.35,1.64c-1,.16-1.44-.38-1.61-1.88-1.05.25-1.8.64-1.61,1.94a13.74,13.74,0,0,1,0,2c0,1-.26,2.16,1.31,2.3.06,0,.08.34.14.59h-5.28c.07-.24.12-.6.19-.61,1.1-.09,1-.85,1-1.63,0-1.11,0-2.23,0-3.35a1.57,1.57,0,0,0-1.16-1.8c-.14,0-.22-.31-.42-.61Z"/><path d="M331.18,44.23c0,1.67,0,3.18,0,4.69a1.18,1.18,0,0,0,1.33,1.3h1.28c-.05.29,0,.57-.12.7-.66.74-2.77,1-3.91.48a2.29,2.29,0,0,1-1.24-2.46c.05-1.54,0-3.08,0-4.66l-1.28-.08c-.11-.86-.11-.86,1.25-1V40.73h2.64v2.5h2.5c.36.81.08,1.05-.66,1C332.44,44.21,331.88,44.23,331.18,44.23Z"/><path d="M242.4,43.34l4.12-.37c0,2.06,0,4,0,5.86,0,.8-.11,1.61,1,1.89.13,0,.19.35.32.63h-5.06c0-.19,0-.52.05-.53,1.27-.25,1.12-1.22,1.11-2.13,0-.67,0-1.35,0-2,.05-1.17.17-2.34-1.34-2.76C242.47,43.88,242.47,43.62,242.4,43.34Z"/><path d="M354.2,81.06a1.92,1.92,0,1,1-2-1.86A1.84,1.84,0,0,1,354.2,81.06Z"/><path d="M288.73,63.15a1.8,1.8,0,1,1-1.8-1.91A1.84,1.84,0,0,1,288.73,63.15Z"/><path d="M246.51,40A1.56,1.56,0,1,1,245,38.48,1.49,1.49,0,0,1,246.51,40Z"/></g></g></g></svg>
