<svg xmlns="http://www.w3.org/2000/svg" viewBox="0 0 67.21 63.97"><title>music_vector_Asset 8ldpi</title><g id="ec9ea1e8-2b61-43e3-a89f-68918c45f918" data-name="Layer 2"><g id="a6b7a942-5cd0-49b7-af6b-400c22870a01" data-name="Layer 1"><path d="M0,52.43C28.48,7.48,18.44,2,29,3.28c0-.83-.32.49-.56-3.28C39.55,7.05,66,50.51,67.21,57.69c-2.66-1.49-3.46-4.41-6.65-7.64-2.87,3.73,9.2,12.17.92,13.92C38.85,63.32,9.43,58.44,0,52.43Zm52,.13.5-.15C46.94,40.66,38.4,24.22,29.32,14.26,26,24.94,19.76,36.69,16.5,48.12c14,2.87,27.22,9.1,42.15,12-1.23-.38-2-8.09-6-4.8Z"/></g></g></svg>
