<svg xmlns="http://www.w3.org/2000/svg" viewBox="0 0 72.96 101.28"><title>music_vector_Asset 3ldpi</title><g id="b5ccbe3b-4cf0-4cb4-8546-a18e873264ff" data-name="Layer 2"><g id="f54db80d-a90a-44b2-acbf-eeed43c92cc5" data-name="Layer 1"><path d="M73,101.28H0V0H73Zm-33.9-95c-3.79,1.56.7,43.7-5.3,53.5-7.36-.75-14.16,1.41-14,12.44-2.11,22.3,30.9,27,25.37-39.24C70.91,52.76,57.51,23.45,39.06,6.31Z" fill="#fff"/><path d="M39.06,6.31C37.34-.07,83.38,59.77,45.16,33,50.7,133.22-7.32,64,33.75,59.8,39.7,58,32.46,52.14,39.06,6.31ZM28.11,63a5.49,5.49,0,0,0-4.51,4.49Z"/><path d="M28.11,63,23.6,67.49A5.49,5.49,0,0,1,28.11,63Z" fill="#fff"/></g></g></svg>
