<svg xmlns="http://www.w3.org/2000/svg" viewBox="0 0 57.6 83.99"><title>music_vector_Asset 7ldpi</title><g id="ab22dcc1-397b-43f7-8204-85fc414674b9" data-name="Layer 2"><g id="bd784d4f-95bb-423c-8840-5899c418a433" data-name="Layer 1"><path d="M29.47,10.3C23,12.43,23.7,13.88,26,22.93c-3.28,7.42-15.19,20.8-23.79,9C-19.74-25,134.64-4.67,5.53,84c.12-.87,14.11-6.91,6-8C-20.2,86.24,77.76,31.78,29.47,10.3Zm-4.81,8.35c-.62-.24.52-.64-2.19-2.58.37,1.45-.64-.76,1.06,6.08C23.68,21.09,24,22.46,24.66,18.65ZM8,24.15l.9,1.13C8.15,25.93,13,21.16,8,24.15Z"/></g></g></svg>
